<svg width="25" height="24" viewBox="0 0 25 24" fill="none" xmlns="http://www.w3.org/2000/svg">
<path d="M18.7289 8C18.7289 6.4087 18.0953 4.88258 16.9677 3.75736C15.84 2.63214 14.3105 2 12.7157 2C11.121 2 9.59149 2.63214 8.46381 3.75736C7.33613 4.88258 6.70261 6.4087 6.70261 8C6.70261 15 3.69604 17 3.69604 17H21.7354C21.7354 17 18.7289 15 18.7289 8Z" stroke="#787878" stroke-linecap="round" stroke-linejoin="round"/>
<path d="M14.4495 21C14.2733 21.3031 14.0204 21.5547 13.7161 21.7295C13.4118 21.9044 13.0669 21.9965 12.7157 21.9965C12.3646 21.9965 12.0196 21.9044 11.7153 21.7295C11.411 21.5547 11.1581 21.3031 10.9819 21" stroke="#787878" stroke-linecap="round" stroke-linejoin="round"/>
</svg>
