<svg width="40" height="40" viewBox="0 0 40 40" fill="none" xmlns="http://www.w3.org/2000/svg">
<rect width="40" height="40" rx="20" fill="#D5FAFF"/>
<path d="M11.5599 29.376H28.8399C29.0944 29.3757 29.3384 29.2745 29.5184 29.0945C29.6983 28.9146 29.7996 28.6705 29.7999 28.416V21.376C29.7996 21.1215 29.6983 20.8775 29.5184 20.6975C29.3384 20.5175 29.0944 20.4163 28.8399 20.416H26.1409C25.9397 19.8581 25.5713 19.3758 25.086 19.0349C24.6007 18.694 24.022 18.5111 23.4289 18.5111C22.8358 18.5111 22.2572 18.694 21.7718 19.0349C21.2865 19.3758 20.9181 19.8581 20.7169 20.416H20.578C20.7584 18.2187 19.5584 16.2286 17.5196 15.5399C20.0235 14.0741 19.0092 10.1954 16.0689 10.176C13.1284 10.1956 12.1145 14.0746 14.6183 15.5399C12.5787 16.2293 11.3797 18.2185 11.5599 20.416C11.3053 20.4163 11.0613 20.5175 10.8813 20.6975C10.7014 20.8775 10.6001 21.1215 10.5999 21.376V28.416C10.6001 28.6705 10.7014 28.9146 10.8813 29.0945C11.0613 29.2745 11.3053 29.3757 11.5599 29.376ZM19.7052 28.736C19.6667 28.7359 19.6297 28.7206 19.6025 28.6934C19.5753 28.6661 19.5599 28.6292 19.5599 28.5907C19.222 23.209 27.0465 22.6807 27.298 28.1251V28.5907C27.2979 28.6292 27.2826 28.6661 27.2553 28.6934C27.2281 28.7206 27.1912 28.7359 27.1527 28.736H19.7052ZM28.8399 21.056C28.9247 21.0561 29.0061 21.0898 29.0661 21.1498C29.1261 21.2098 29.1598 21.2912 29.1599 21.376V28.416C29.1598 28.5009 29.1261 28.5822 29.0661 28.6422C29.0061 28.7022 28.9247 28.736 28.8399 28.736H27.9233C28.0459 27.6983 27.8111 26.6498 27.2578 25.7634C26.7045 24.877 25.8657 24.2056 24.8796 23.8599C25.3604 23.5787 25.7495 23.1643 25.9998 22.6667C26.2501 22.1691 26.3509 21.6097 26.29 21.056H28.8399ZM23.4289 19.136C24.0228 19.1367 24.5921 19.373 25.012 19.7929C25.432 20.2128 25.6682 20.7822 25.6689 21.376C25.5635 24.3406 21.2938 24.3399 21.1889 21.376C21.1896 20.7821 21.4259 20.2128 21.8458 19.7929C22.2657 19.373 22.8351 19.1367 23.4289 19.136ZM13.8289 13.056C13.8296 12.4622 14.0659 11.8928 14.4858 11.4729C14.9057 11.053 15.4751 10.8167 16.0689 10.816C19.0335 10.9214 19.0328 15.1911 16.0689 15.296C15.475 15.2953 14.9057 15.0591 14.4858 14.6391C14.0659 14.2192 13.8296 13.6499 13.8289 13.056ZM12.1999 19.8051C12.5286 14.3007 20.3353 14.859 19.938 20.416H12.1999V19.8051ZM11.2399 21.376C11.2399 21.2912 11.2736 21.2098 11.3336 21.1498C11.3936 21.0898 11.475 21.0561 11.5599 21.056H20.5678C20.5069 21.6097 20.6077 22.1691 20.858 22.6667C21.1083 23.1643 21.4974 23.5788 21.9783 23.8599C20.9922 24.2056 20.1533 24.877 19.6 25.7634C19.0467 26.6498 18.812 27.6983 18.9345 28.736H11.5599C11.475 28.736 11.3936 28.7022 11.3336 28.6422C11.2736 28.5822 11.2399 28.5009 11.2399 28.416V21.376Z" fill="#1AB7CC"/>
</svg>
