<svg width="25" height="24" viewBox="0 0 25 24" fill="none" xmlns="http://www.w3.org/2000/svg">
<path d="M21.5753 12.79C21.418 14.4922 20.7792 16.1144 19.7336 17.4668C18.688 18.8192 17.2788 19.8458 15.671 20.4265C14.0633 21.0073 12.3233 21.1181 10.6548 20.7461C8.98636 20.3741 7.45833 19.5345 6.24957 18.3258C5.0408 17.117 4.20128 15.589 3.82925 13.9205C3.45722 12.252 3.56806 10.5121 4.1488 8.9043C4.72954 7.29651 5.75617 5.88737 7.10855 4.84175C8.46094 3.79614 10.0831 3.15731 11.7853 3C10.7888 4.34827 10.3092 6.00945 10.4339 7.68141C10.5586 9.35338 11.2792 10.9251 12.4647 12.1106C13.6503 13.2961 15.222 14.0168 16.8939 14.1415C18.5659 14.2662 20.2271 13.7866 21.5753 12.79V12.79Z" stroke="#787878" stroke-linecap="round" stroke-linejoin="round"/>
</svg>
