<svg width="41" height="41" viewBox="0 0 41 41" fill="none" xmlns="http://www.w3.org/2000/svg">
<rect x="0.75" y="0.280029" width="40" height="40" rx="20" fill="white" fill-opacity="0.2"/>
<path d="M12.3101 29.6561H29.5901C29.8446 29.6558 30.0886 29.5545 30.2686 29.3746C30.4486 29.1946 30.5498 28.9506 30.5501 28.6961V21.6561C30.5498 21.4015 30.4486 21.1575 30.2686 20.9775C30.0886 20.7976 29.8446 20.6963 29.5901 20.6961H26.8912C26.69 20.1381 26.3216 19.6558 25.8362 19.3149C25.3509 18.974 24.7722 18.7911 24.1792 18.7911C23.5861 18.7911 23.0074 18.974 22.5221 19.3149C22.0367 19.6558 21.6684 20.1381 21.4672 20.6961H21.3282C21.5087 18.4987 20.3086 16.5087 18.2698 15.8199C20.7737 14.3541 19.7595 10.4755 16.8191 10.4561C13.8786 10.4756 12.8647 14.3546 15.3685 15.8199C13.3289 16.5093 12.1299 18.4985 12.3101 20.6961C12.0556 20.6963 11.8116 20.7976 11.6316 20.9775C11.4516 21.1575 11.3504 21.4015 11.3501 21.6561V28.6961C11.3504 28.9506 11.4516 29.1946 11.6316 29.3746C11.8116 29.5545 12.0556 29.6558 12.3101 29.6561ZM20.4554 29.0161C20.4169 29.016 20.38 29.0006 20.3528 28.9734C20.3255 28.9462 20.3102 28.9093 20.3101 28.8707C19.9723 23.4891 27.7967 22.9608 28.0482 28.4051V28.8707C28.0481 28.9093 28.0328 28.9462 28.0056 28.9734C27.9783 29.0006 27.9414 29.016 27.9029 29.0161H20.4554ZM29.5901 21.3361C29.675 21.3361 29.7563 21.3698 29.8163 21.4298C29.8763 21.4898 29.91 21.5712 29.9101 21.6561V28.6961C29.91 28.7809 29.8763 28.8623 29.8163 28.9223C29.7563 28.9823 29.675 29.016 29.5901 29.0161H28.6735C28.7961 27.9783 28.5614 26.9298 28.0081 26.0434C27.4548 25.157 26.6159 24.4856 25.6298 24.1399C26.1107 23.8588 26.4998 23.4443 26.7501 22.9468C27.0004 22.4492 27.1012 21.8897 27.0403 21.3361H29.5901ZM24.1792 19.4161C24.773 19.4168 25.3424 19.653 25.7623 20.0729C26.1822 20.4929 26.4184 21.0622 26.4192 21.6561C26.3138 24.6207 22.0441 24.6199 21.9392 21.656C21.9399 21.0622 22.1761 20.4928 22.596 20.0729C23.016 19.653 23.5853 19.4168 24.1792 19.4161ZM14.5792 13.3361C14.5799 12.7422 14.8161 12.1729 15.236 11.7529C15.656 11.333 16.2253 11.0968 16.8192 11.0961C19.7838 11.2014 19.783 15.4711 16.8191 15.5761C16.2253 15.5753 15.6559 15.3391 15.236 14.9192C14.8161 14.4992 14.5799 13.9299 14.5792 13.3361ZM12.9501 20.0851C13.2789 14.5808 21.0855 15.139 20.6882 20.6961H12.9501V20.0851ZM11.9901 21.6561C11.9902 21.5712 12.0239 21.4898 12.0839 21.4298C12.1439 21.3698 12.2252 21.3361 12.3101 21.3361H21.318C21.2571 21.8897 21.358 22.4492 21.6083 22.9468C21.8586 23.4444 22.2477 23.8588 22.7285 24.1399C21.7424 24.4856 20.9036 25.157 20.3503 26.0434C19.7969 26.9298 19.5622 27.9783 19.6848 29.0161H12.3101C12.2252 29.016 12.1439 28.9823 12.0839 28.9223C12.0239 28.8623 11.9902 28.7809 11.9901 28.6961V21.6561Z" fill="white"/>
</svg>
